<svg version="1.2" xmlns="http://www.w3.org/2000/svg" viewBox="0 0 897 501" width="897" height="501"><defs><filter x="-50%" y="-50%" width="200%" height="200%" id="f1" ><feDropShadow dx="-1.2246467991473532e-16" dy="2" stdDeviation="38.333333333333336" flood-color="#000000" flood-opacity="0"/></filter><filter x="-50%" y="-50%" width="200%" height="200%" id="f2" ><feDropShadow dx="-1.2246467991473532e-16" dy="2" stdDeviation="38.333333333333336" flood-color="#000000" flood-opacity="0"/></filter><linearGradient id="P" gradientUnits="userSpaceOnUse"/><linearGradient id="g1" x1="248.2" y1="57009.3" x2="418917.9" y2="100518.9" href="#P"><stop stop-color="#33d35e"/><stop offset="1" stop-color="#2ab6d9"/></linearGradient></defs><style>.a{filter:url(#f1)}.b{filter:url(#f2);fill:#2d314d}.c{fill:url(#g1)}</style><path fill-rule="evenodd" class="a" d="m38.4 208.8q-1.4-2-2.3-4.3-1-2.2-1.4-4.6-0.5-2.4-0.5-4.9c0-13.7 11.1-24.9 24.9-24.9q2.4 0 4.8-0.4 2.4-0.5 4.7-1.5 2.2-0.9 4.3-2.3 2-1.3 3.7-3c9.8-9.8 9.8-25.5 0-35.2l-17.5-17.6q-2.5-2.5-4.4-5.4-1.9-2.8-3.3-6-1.3-3.2-2-6.6-0.6-3.4-0.7-6.9c0-19.4 15.8-35.2 35.2-35.2h128.6c6.4 0 12.8 0.6 19.1 1.9 6.3 1.2 12.4 3.1 18.4 5.6 5.9 2.4 11.6 5.4 16.9 9 5.3 3.6 10.3 7.7 14.8 12.2 4.6 4.5 9.6 8.6 14.9 12.2 5.3 3.5 11 6.6 16.9 9 6 2.5 12.1 4.4 18.4 5.6 6.3 1.3 12.7 1.9 19.1 1.9h112c6.6 0 13.1 0.6 19.5 1.9 6.5 1.3 12.7 3.2 18.8 5.7 6.1 2.5 11.8 5.6 17.3 9.3 5.4 3.6 10.5 7.8 15.1 12.4l108.1 108.1c3.6 3.5 5.5 8.3 5.5 13.3 0 10.4-8.4 18.9-18.8 18.9q-1.9 0-3.7 0.3-1.8 0.4-3.5 1.1-1.7 0.7-3.3 1.7-1.5 1.1-2.8 2.4c-7.4 7.3-7.4 19.3 0 26.6l52.8 52.9q3.5 3.5 6.2 7.5 2.7 4.1 4.6 8.6 1.9 4.6 2.8 9.4 1 4.8 1 9.7c0 27.5-22.3 49.8-49.8 49.8h-221.7c-6.5 0-13.1-0.6-19.5-1.9-6.4-1.3-12.7-3.2-18.8-5.7-6-2.5-11.8-5.6-17.3-9.3-5.4-3.6-10.5-7.8-15.1-12.4l-75.7-75.7c-4.7-4.7-9.7-8.8-15.2-12.5-5.4-3.6-11.2-6.7-17.3-9.2-6-2.5-12.3-4.4-18.7-5.7-6.5-1.3-13-1.9-19.5-1.9h-11.1c-6.5 0-13.1-0.7-19.5-2-6.4-1.2-12.7-3.1-18.8-5.6-6-2.6-11.8-5.7-17.2-9.3-5.5-3.6-10.6-7.8-15.2-12.4l-70.7-70.8q-1.8-1.7-3.1-3.8z"/><path fill-rule="evenodd" class="b" d="m38.4 208.8q-1.4-2-2.3-4.3-1-2.2-1.4-4.6-0.5-2.4-0.5-4.9c0-13.7 11.1-24.9 24.9-24.9q2.4 0 4.8-0.4 2.4-0.5 4.7-1.5 2.2-0.9 4.3-2.3 2-1.3 3.7-3c9.8-9.8 9.8-25.5 0-35.2l-17.5-17.6q-2.5-2.5-4.4-5.4-1.9-2.8-3.3-6-1.3-3.2-2-6.6-0.6-3.4-0.7-6.9c0-19.4 15.8-35.2 35.2-35.2h128.6c6.4 0 12.8 0.6 19.1 1.9 6.3 1.2 12.4 3.1 18.4 5.6 5.9 2.4 11.6 5.4 16.9 9 5.3 3.6 10.3 7.7 14.8 12.2 4.6 4.5 9.6 8.6 14.9 12.2 5.3 3.5 11 6.6 16.9 9 6 2.5 12.1 4.4 18.4 5.6 6.3 1.3 12.7 1.9 19.1 1.9h112c6.6 0 13.1 0.6 19.5 1.9 6.5 1.3 12.7 3.2 18.8 5.7 6.1 2.5 11.8 5.6 17.3 9.3 5.4 3.6 10.5 7.8 15.1 12.4l108.1 108.1c3.6 3.5 5.5 8.3 5.5 13.3 0 10.4-8.4 18.9-18.8 18.9q-1.9 0-3.7 0.3-1.8 0.4-3.5 1.1-1.7 0.7-3.3 1.7-1.5 1.1-2.8 2.4c-7.4 7.3-7.4 19.3 0 26.6l52.8 52.9q3.5 3.5 6.2 7.5 2.7 4.1 4.6 8.6 1.9 4.6 2.8 9.4 1 4.8 1 9.7c0 27.5-22.3 49.8-49.8 49.8h-221.7c-6.5 0-13.1-0.6-19.5-1.9-6.4-1.3-12.7-3.2-18.8-5.7-6-2.5-11.8-5.6-17.3-9.3-5.4-3.6-10.5-7.8-15.1-12.4l-75.7-75.7c-4.7-4.7-9.7-8.8-15.2-12.5-5.4-3.6-11.2-6.7-17.3-9.2-6-2.5-12.3-4.4-18.7-5.7-6.5-1.3-13-1.9-19.5-1.9h-11.1c-6.5 0-13.1-0.7-19.5-2-6.4-1.2-12.7-3.1-18.8-5.6-6-2.6-11.8-5.7-17.2-9.3-5.5-3.6-10.6-7.8-15.2-12.4l-70.7-70.8q-1.8-1.7-3.1-3.8z"/><path fill-rule="evenodd" class="c" d="m252.4 209.8q-1.4-2-2.3-4.3-1-2.2-1.4-4.6-0.5-2.4-0.5-4.9c0-13.7 11.1-24.9 24.9-24.9q2.4 0 4.8-0.4 2.4-0.5 4.7-1.5 2.2-0.9 4.3-2.3 2-1.3 3.7-3c9.8-9.8 9.8-25.5 0-35.2l-17.5-17.6q-2.5-2.5-4.4-5.4-1.9-2.8-3.3-6-1.3-3.2-2-6.6-0.6-3.4-0.7-6.9c0-19.4 15.8-35.2 35.2-35.2h128.6c6.4 0 12.8 0.6 19.1 1.9 6.3 1.2 12.4 3.1 18.4 5.6 5.9 2.4 11.6 5.4 16.9 9 5.3 3.6 10.3 7.7 14.8 12.2 4.6 4.5 9.6 8.6 14.9 12.2 5.3 3.5 11 6.6 16.9 9 6 2.5 12.1 4.4 18.4 5.6 6.3 1.3 12.7 1.9 19.1 1.9h112c6.6 0 13.1 0.6 19.5 1.9 6.5 1.3 12.7 3.2 18.8 5.7 6.1 2.5 11.8 5.6 17.3 9.3 5.4 3.6 10.5 7.8 15.1 12.4l108.1 108.1c3.6 3.5 5.5 8.3 5.5 13.3 0 10.4-8.4 18.9-18.8 18.9q-1.9 0-3.7 0.3-1.8 0.4-3.5 1.1-1.7 0.7-3.3 1.7-1.5 1.1-2.8 2.4c-7.4 7.3-7.4 19.3 0 26.6l52.8 52.9q3.5 3.5 6.2 7.5 2.7 4.1 4.6 8.6 1.9 4.6 2.8 9.4 1 4.8 1 9.7c0 27.5-22.3 49.8-49.8 49.8h-221.7c-6.5 0-13.1-0.6-19.5-1.9-6.4-1.3-12.7-3.2-18.8-5.7-6-2.5-11.8-5.6-17.3-9.3-5.4-3.6-10.5-7.8-15.1-12.4l-75.7-75.7c-4.7-4.7-9.7-8.8-15.2-12.5-5.4-3.6-11.2-6.7-17.3-9.2-6-2.5-12.3-4.4-18.7-5.7-6.5-1.3-13-1.9-19.5-1.9h-11.1c-6.5 0-13.1-0.7-19.5-2-6.4-1.2-12.7-3.1-18.8-5.6-6-2.6-11.8-5.7-17.2-9.3-5.5-3.6-10.6-7.8-15.2-12.4l-70.7-70.8q-1.8-1.7-3.1-3.8z"/></svg>